<?xml version="1.0" standalone="no"?>
<!DOCTYPE svg PUBLIC "-//W3C//DTD SVG 20010904//EN"
 "http://www.w3.org/TR/2001/REC-SVG-20010904/DTD/svg10.dtd">
<svg version="1.0" xmlns="http://www.w3.org/2000/svg"
 width="68.000000pt" height="50.000000pt" viewBox="0 0 68.000000 50.000000"
 preserveAspectRatio="xMidYMid meet">
<metadata>
Created by potrace 1.15, written by Peter Selinger 2001-2017
</metadata>
<g transform="translate(0.000000,50.000000) scale(0.100000,-0.100000)"
fill="#000000" stroke="none">
<path d="M195 488 c-58 -32 -105 -96 -105 -144 0 -18 -12 -39 -36 -62 -43 -41
-54 -69 -54 -130 0 -56 26 -104 72 -132 31 -18 51 -20 282 -20 l248 0 39 39
c36 36 39 43 39 94 0 48 -4 61 -31 91 -16 19 -38 37 -47 40 -14 5 -16 15 -14
50 3 39 0 49 -25 72 -24 22 -35 25 -75 21 -44 -4 -50 -2 -72 28 -14 18 -40 40
-59 49 -40 18 -132 21 -162 4z"/>
</g>
</svg>
