<?xml version="1.0" standalone="no"?>
<!DOCTYPE svg PUBLIC "-//W3C//DTD SVG 20010904//EN"
 "http://www.w3.org/TR/2001/REC-SVG-20010904/DTD/svg10.dtd">
<svg version="1.0" xmlns="http://www.w3.org/2000/svg"
 width="50.000000pt" height="50.000000pt" viewBox="0 0 50.000000 50.000000"
 preserveAspectRatio="xMidYMid meet">
<metadata>
Created by potrace 1.15, written by Peter Selinger 2001-2017
</metadata>
<g transform="translate(0.000000,50.000000) scale(0.100000,-0.100000)"
fill="#000000" stroke="none">
<path d="M144 482 c-98 -46 -149 -136 -142 -250 5 -89 41 -153 112 -197 42
-26 61 -30 130 -33 77 -3 84 -2 136 30 39 24 64 49 88 88 32 52 33 59 30 136
-3 69 -7 88 -33 130 -19 30 -49 60 -79 79 -42 25 -61 30 -125 33 -58 2 -86 -2
-117 -16z m89 -78 c-14 -22 -14 -24 3 -30 11 -4 27 -14 37 -23 16 -13 19 -13
27 -1 6 8 10 23 10 32 0 17 2 17 32 0 42 -24 47 -42 13 -42 -20 0 -26 -4 -21
-15 3 -8 -3 -20 -12 -27 -9 -7 -22 -22 -28 -33 -6 -12 -25 -22 -45 -25 -30 -4
-34 -9 -37 -37 -2 -23 -7 -30 -18 -26 -8 3 -14 11 -14 18 0 7 -18 30 -40 51
-31 30 -40 45 -36 63 2 14 -1 33 -8 44 -9 16 -6 23 21 45 24 21 43 27 81 28
l50 1 -15 -23z"/>
</g>
</svg>
