<?xml version="1.0" standalone="no"?>
<!DOCTYPE svg PUBLIC "-//W3C//DTD SVG 20010904//EN"
 "http://www.w3.org/TR/2001/REC-SVG-20010904/DTD/svg10.dtd">
<svg version="1.0" xmlns="http://www.w3.org/2000/svg"
 width="50.000000pt" height="50.000000pt" viewBox="0 0 50.000000 50.000000"
 preserveAspectRatio="xMidYMid meet">
<metadata>
Created by potrace 1.15, written by Peter Selinger 2001-2017
</metadata>
<g transform="translate(0.000000,50.000000) scale(0.100000,-0.100000)"
fill="#000000" stroke="none">
<path d="M16 484 c-24 -23 -24 -445 0 -468 23 -24 445 -24 468 0 24 23 24 445
0 468 -23 24 -445 24 -468 0z m288 -159 c36 -24 51 -68 36 -105 -26 -62 -97
-78 -149 -34 -86 72 19 201 113 139z m-209 -90 c1 -110 133 -181 233 -125 47
26 82 84 82 134 0 26 4 36 15 36 13 0 15 -16 13 -107 l-3 -108 -185 0 -185 0
-3 108 c-2 97 -1 107 15 107 15 0 18 -9 18 -45z"/>
</g>
</svg>
