<?xml version="1.0" standalone="no"?>
<!DOCTYPE svg PUBLIC "-//W3C//DTD SVG 20010904//EN"
 "http://www.w3.org/TR/2001/REC-SVG-20010904/DTD/svg10.dtd">
<svg version="1.0" xmlns="http://www.w3.org/2000/svg"
 width="50.000000pt" height="50.000000pt" viewBox="0 0 50.000000 50.000000"
 preserveAspectRatio="xMidYMid meet">
<metadata>
Created by potrace 1.15, written by Peter Selinger 2001-2017
</metadata>
<g transform="translate(0.000000,50.000000) scale(0.100000,-0.100000)"
fill="#000000" stroke="none">
<path d="M150 484 c-19 -8 -42 -22 -52 -31 -17 -15 -20 -15 -41 5 -13 12 -31
22 -40 22 -15 0 -17 -13 -17 -95 l0 -95 95 0 c82 0 95 2 95 17 0 9 -10 27 -22
41 -23 23 -23 24 -4 38 55 39 144 28 197 -25 113 -112 12 -296 -146 -267 -20
4 -51 20 -70 37 l-34 30 -33 -30 c-40 -36 -34 -52 37 -96 44 -27 56 -30 135
-30 79 0 91 3 136 30 71 44 107 108 112 197 7 114 -45 205 -142 249 -51 23
-157 24 -206 3z"/>
</g>
</svg>
