<?xml version="1.0" standalone="no"?>
<!DOCTYPE svg PUBLIC "-//W3C//DTD SVG 20010904//EN"
 "http://www.w3.org/TR/2001/REC-SVG-20010904/DTD/svg10.dtd">
<svg version="1.0" xmlns="http://www.w3.org/2000/svg"
 width="28.000000pt" height="28.000000pt" viewBox="0 0 28.000000 28.000000"
 preserveAspectRatio="xMidYMid meet">
<metadata>
Created by potrace 1.15, written by Peter Selinger 2001-2017
</metadata>
<g transform="translate(0.000000,28.000000) scale(0.100000,-0.100000)"
fill="#000000" stroke="none">
<path d="M37 242 c-36 -37 -37 -40 -37 -110 l0 -72 50 0 c49 0 50 -1 50 -30
l0 -30 90 0 90 0 0 110 0 110 -50 0 c-49 0 -50 1 -50 30 0 30 -1 30 -53 30
-48 0 -56 -3 -90 -38z m223 -132 l0 -90 -70 0 -70 0 0 50 0 50 40 0 40 0 0 40
c0 38 2 40 30 40 l30 0 0 -90z"/>
</g>
</svg>
