<?xml version="1.0" standalone="no"?>
<!DOCTYPE svg PUBLIC "-//W3C//DTD SVG 20010904//EN"
 "http://www.w3.org/TR/2001/REC-SVG-20010904/DTD/svg10.dtd">
<svg version="1.0" xmlns="http://www.w3.org/2000/svg"
 width="30.000000pt" height="30.000000pt" viewBox="0 0 30.000000 30.000000"
 preserveAspectRatio="xMidYMid meet">
<metadata>
Created by potrace 1.15, written by Peter Selinger 2001-2017
</metadata>
<g transform="translate(0.000000,30.000000) scale(0.100000,-0.100000)"
fill="#000000" stroke="none">
<path d="M115 280 c-7 -23 -16 -25 -33 -8 -10 10 -18 6 -39 -15 -21 -21 -25
-29 -15 -39 17 -17 15 -26 -8 -33 -28 -9 -28 -65 0 -72 23 -6 23 -8 10 -32 -7
-14 -4 -24 15 -41 21 -20 27 -21 40 -10 14 12 18 11 26 -1 5 -8 9 -17 9 -21 0
-5 14 -8 31 -8 22 0 32 5 36 20 6 23 14 25 30 9 9 -9 18 -8 37 5 27 17 34 40
16 51 -16 10 -12 22 10 28 14 4 20 14 20 35 0 22 -6 32 -20 37 -23 7 -25 16
-8 33 10 10 6 18 -15 39 -21 21 -29 25 -39 15 -17 -17 -25 -15 -31 8 -4 14
-14 20 -35 20 -22 0 -32 -6 -37 -20z"/>
</g>
</svg>
