<?xml version="1.0" standalone="no"?>
<!DOCTYPE svg PUBLIC "-//W3C//DTD SVG 20010904//EN"
 "http://www.w3.org/TR/2001/REC-SVG-20010904/DTD/svg10.dtd">
<svg version="1.0" xmlns="http://www.w3.org/2000/svg"
 width="50.000000pt" height="43.000000pt" viewBox="0 0 50.000000 43.000000"
 preserveAspectRatio="xMidYMid meet">
<metadata>
Created by potrace 1.15, written by Peter Selinger 2001-2017
</metadata>
<g transform="translate(0.000000,43.000000) scale(0.100000,-0.100000)"
fill="#000000" stroke="none">
<path d="M136 414 c-52 -19 -102 -58 -121 -94 -33 -64 -10 -157 49 -195 24
-16 25 -19 11 -44 -7 -15 -21 -33 -29 -40 -9 -8 -16 -20 -16 -29 0 -25 84 -9
141 27 39 24 62 31 99 31 67 0 149 33 190 75 30 31 35 43 38 99 4 62 3 65 -33
104 -49 55 -122 82 -218 81 -40 0 -90 -7 -111 -15z"/>
</g>
</svg>
