<?xml version="1.0" standalone="no"?>
<!DOCTYPE svg PUBLIC "-//W3C//DTD SVG 20010904//EN"
 "http://www.w3.org/TR/2001/REC-SVG-20010904/DTD/svg10.dtd">
<svg version="1.0" xmlns="http://www.w3.org/2000/svg"
 width="50.000000pt" height="46.000000pt" viewBox="0 0 50.000000 46.000000"
 preserveAspectRatio="xMidYMid meet">
<metadata>
Created by potrace 1.15, written by Peter Selinger 2001-2017
</metadata>
<g transform="translate(0.000000,46.000000) scale(0.100000,-0.100000)"
fill="#000000" stroke="none">
<path d="M198 385 l4 -75 -51 0 c-79 0 -77 -18 10 -106 40 -41 80 -74 89 -74
9 0 49 33 89 74 87 88 89 106 10 106 l-51 0 4 75 3 75 -55 0 -55 0 3 -75z"/>
<path d="M7 153 c-4 -3 -7 -39 -7 -80 l0 -73 250 0 251 0 -3 78 -3 77 -86 3
c-84 3 -85 2 -112 -28 -34 -38 -56 -38 -92 0 -27 29 -33 30 -110 30 -45 0 -85
-3 -88 -7z"/>
</g>
</svg>
