<?xml version="1.0" standalone="no"?>
<!DOCTYPE svg PUBLIC "-//W3C//DTD SVG 20010904//EN"
 "http://www.w3.org/TR/2001/REC-SVG-20010904/DTD/svg10.dtd">
<svg version="1.0" xmlns="http://www.w3.org/2000/svg"
 width="48.000000pt" height="50.000000pt" viewBox="0 0 48.000000 50.000000"
 preserveAspectRatio="xMidYMid meet">
<metadata>
Created by potrace 1.15, written by Peter Selinger 2001-2017
</metadata>
<g transform="translate(0.000000,50.000000) scale(0.100000,-0.100000)"
fill="#000000" stroke="none">
<path d="M137 493 c-15 -14 -6 -33 18 -39 23 -6 25 -11 25 -61 0 -53 -4 -62
-91 -194 -70 -106 -90 -144 -87 -166 l3 -28 235 0 235 0 3 28 c3 21 -18 61
-87 168 -86 132 -91 142 -91 193 0 49 2 54 25 60 16 4 25 13 25 26 0 19 -7 20
-103 20 -57 0 -107 -3 -110 -7z m123 -116 c0 -69 2 -75 45 -140 l45 -67 -110
0 -110 0 45 67 c43 65 45 71 45 140 0 66 2 73 20 73 18 0 20 -7 20 -73z"/>
</g>
</svg>
