<?xml version="1.0" standalone="no"?>
<!DOCTYPE svg PUBLIC "-//W3C//DTD SVG 20010904//EN"
 "http://www.w3.org/TR/2001/REC-SVG-20010904/DTD/svg10.dtd">
<svg version="1.0" xmlns="http://www.w3.org/2000/svg"
 width="35.000000pt" height="50.000000pt" viewBox="0 0 35.000000 50.000000"
 preserveAspectRatio="xMidYMid meet">
<metadata>
Created by potrace 1.15, written by Peter Selinger 2001-2017
</metadata>
<g transform="translate(0.000000,50.000000) scale(0.100000,-0.100000)"
fill="#000000" stroke="none">
<path d="M106 475 c-25 -24 -26 -27 -26 -149 l0 -124 31 -26 c41 -35 96 -35
133 -1 25 24 26 27 26 150 0 123 -1 126 -26 150 -20 18 -38 25 -69 25 -31 0
-49 -7 -69 -25z"/>
<path d="M0 255 c0 -31 6 -68 14 -83 20 -37 65 -78 101 -89 17 -5 31 -17 33
-26 3 -14 -5 -17 -41 -17 -31 0 -47 -5 -51 -15 -8 -23 9 -26 130 -23 89 2 109
6 109 18 0 11 -13 16 -48 18 -38 3 -48 7 -45 19 2 9 17 20 33 25 34 9 60 29
93 72 17 23 22 42 22 92 0 57 -2 64 -20 64 -17 0 -20 -7 -20 -40 0 -142 -169
-202 -245 -87 -9 14 -18 48 -22 76 -5 41 -9 51 -24 51 -16 0 -19 -8 -19 -55z"/>
</g>
</svg>
