<?xml version="1.0" standalone="no"?>
<!DOCTYPE svg PUBLIC "-//W3C//DTD SVG 20010904//EN"
 "http://www.w3.org/TR/2001/REC-SVG-20010904/DTD/svg10.dtd">
<svg version="1.0" xmlns="http://www.w3.org/2000/svg"
 width="46.000000pt" height="50.000000pt" viewBox="0 0 46.000000 50.000000"
 preserveAspectRatio="xMidYMid meet">
<metadata>
Created by potrace 1.15, written by Peter Selinger 2001-2017
</metadata>
<g transform="translate(0.000000,50.000000) scale(0.100000,-0.100000)"
fill="#000000" stroke="none">
<path d="M275 459 l-120 -39 3 -154 4 -154 -45 5 c-63 7 -117 -19 -117 -58 0
-39 33 -59 96 -59 37 0 59 6 78 21 25 20 26 23 26 133 l0 112 93 28 c50 16
100 31 110 33 15 5 17 -3 17 -65 l0 -70 -42 1 c-106 4 -155 -68 -73 -107 42
-20 78 -20 121 0 l34 16 0 199 0 199 -32 -1 c-18 -1 -87 -19 -153 -40z"/>
</g>
</svg>
