<?xml version="1.0" standalone="no"?>
<!DOCTYPE svg PUBLIC "-//W3C//DTD SVG 20010904//EN"
 "http://www.w3.org/TR/2001/REC-SVG-20010904/DTD/svg10.dtd">
<svg version="1.0" xmlns="http://www.w3.org/2000/svg"
 width="18.000000pt" height="20.000000pt" viewBox="0 0 18.000000 20.000000"
 preserveAspectRatio="xMidYMid meet">
<metadata>
Created by potrace 1.15, written by Peter Selinger 2001-2017
</metadata>
<g transform="translate(0.000000,20.000000) scale(0.100000,-0.100000)"
fill="#000000" stroke="none">
<path d="M0 100 l0 -100 90 0 90 0 0 78 c0 69 -3 81 -23 100 -19 18 -35 22
-90 22 l-67 0 0 -100z m102 53 c2 -22 9 -29 31 -31 25 -3 27 -6 27 -53 l0 -49
-70 0 -70 0 0 80 0 80 39 0 c36 0 40 -3 43 -27z"/>
</g>
</svg>
