<?xml version="1.0" encoding="iso-8859-1"?>
<!-- Generator: Adobe Illustrator 19.0.0, SVG Export Plug-In . SVG Version: 6.00 Build 0)  -->
<svg version="1.1" id="Layer_1" xmlns="http://www.w3.org/2000/svg" xmlns:xlink="http://www.w3.org/1999/xlink" x="0px" y="0px"
	 viewBox="0 0 295.001 295.001" style="enable-background:new 0 0 295.001 295.001;" xml:space="preserve">
<g>
	<path style="fill:#6AAC4B;" d="M254.527,221.788c-2.925-13.486-13.435-24.034-26.91-27.008l-59.503-6.613h-41.269l-59.503,6.613
		c-13.475,2.974-23.985,13.522-26.91,27.008l-9.126,42.076c13.14,8.612,28.709,15.764,46.016,21.034
		c21.242,6.469,45.609,3.602,70.832,3.602c25.092,0,48.334,2.905,69.493-3.501c17.31-5.241,32.886-12.364,46.047-20.945
		L254.527,221.788z"/>
	<g>
		<path style="fill:#34631C;" d="M126.845,181.647h41.269c0,0,0.938,20.772-19.681,20.772S126.814,185.855,126.845,181.647z"/>
	</g>
	<g>
		<rect x="130.668" y="159.001" style="fill:#DDC29B;" width="34" height="51"/>
	</g>
	<g>
		<path style="fill:#E8D8BF;" d="M232.831,103.721c0-7.098-4.379-13.164-10.578-15.671c0.222-2.471,0.341-4.918,0.341-7.327
			c0-41.38-33.545-56.194-74.925-56.194S72.743,39.343,72.743,80.723c0,2.409,0.118,4.856,0.341,7.327
			c-6.199,2.507-10.578,8.573-10.578,15.671c0,9.179,12.356,21.685,21.646,22.107c13.249,26.661,36.74,48.551,63.516,48.551
			s50.267-21.89,63.516-48.551C220.474,125.406,232.831,112.9,232.831,103.721z"/>
	</g>
	<g>
		<path style="fill:#6AAC4B;" d="M147.668,212.371c16.211,0,29.48-12.558,30.633-28.475l-10.188-2.249
			c0,11.481-9,20.788-20.481,20.788s-20.788-9.307-20.789-20.788l-9.816,2.166C118.142,199.769,131.429,212.371,147.668,212.371z"/>
	</g>
	<g>
		<path style="fill:#86C867;" d="M178.302,183.895c-1.153,15.917-14.422,28.475-30.633,28.475
			c-16.239,0-29.527-12.601-30.639-28.557l-49.025,10.821c14.126,28.117,12.31,59.393,9.318,90.265
			c21.241,6.468,45.103,10.102,70.325,10.102c25.092,0,48.839-3.595,69.999-10.001c-2.998-30.905-4.834-62.218,9.308-90.366
			L178.302,183.895z"/>
	</g>
	<g>
		<path style="fill:#DDCDB6;" d="M222.231,88.05c0.222-2.471,0.341-4.918,0.341-7.327c0-41.38-33.545-56.194-74.925-56.194
			S72.721,39.343,72.721,80.723c0,2.409,0.118,4.856,0.341,7.327c-6.199,2.507-10.578,8.573-10.578,15.671
			c0,9.179,12.356,21.685,21.646,22.107c13.249,26.661,36.74,48.551,63.516,48.551s50.267-21.89,63.516-48.551
			c9.29-0.422,21.646-12.928,21.646-22.107C232.809,96.623,228.43,90.556,222.231,88.05z M147.646,171.909
			c-31.403,0-56.86-51.012-56.86-83.904s25.457-45.281,56.86-45.281s56.86,12.389,56.86,45.281S179.049,171.909,147.646,171.909z"/>
	</g>
	<g>
		<path style="fill:#5E4534;" d="M205.261,14.333c-14.548-9.505-34.698-1.579-34.698-1.579
			C150.413-1.573,133.078-1.458,121.748,1.78c-61.87,17.68-54.765,90.484-54.765,90.484c1.754-0.317,3.512-0.651,5.271-0.997
			c2.031,4.84,5.921,13.801,11.179,24.506c0,0-4.219-14.673-2.005-26.427c47.531-10.526,93.335-29.277,93.335-29.277
			c6.377,26.542,25.502,40.101,36.336,45.831c-1.5,6.378-3.489,11.226-3.489,11.226c3.079-2.832,5.587-6.008,7.629-9.202
			c2.219,0.99,3.569,1.438,3.569,1.438C247.852,54.491,223.679,26.366,205.261,14.333z"/>
	</g>
	<g>
		<g>
			<path style="fill:#442F20;" d="M80.8,110.322c0.835,1.756,1.712,3.575,2.633,5.451c0,0-1.378-4.798-2.145-11.101
				C80.99,106.517,80.84,108.421,80.8,110.322z"/>
		</g>
		<g>
			<path style="fill:#442F20;" d="M66.995,92.261c1.467-22.178,10.331-63.287,54.753-75.982c11.33-3.238,28.665-3.353,48.815,10.974
				c0,0,20.15-7.926,34.698,1.579c11.055,7.223,24.179,20.247,26.628,41.369c3.191-29.859-13.236-47.12-26.628-55.869
				c-14.548-9.505-34.698-1.579-34.698-1.579c-20.15-14.327-37.485-14.212-48.815-10.974c-61.87,17.68-54.765,90.484-54.765,90.484
				C66.987,92.263,66.991,92.262,66.995,92.261z"/>
		</g>
	</g>
	<g>
		<circle style="fill:#356272;" cx="186.313" cy="249.834" r="13.667"/>
	</g>
	<g>
		<circle style="fill:#F3F3E9;" cx="186.313" cy="249.834" r="6.917"/>
	</g>
</g>
<g>
</g>
<g>
</g>
<g>
</g>
<g>
</g>
<g>
</g>
<g>
</g>
<g>
</g>
<g>
</g>
<g>
</g>
<g>
</g>
<g>
</g>
<g>
</g>
<g>
</g>
<g>
</g>
<g>
</g>
</svg>
